# xmcd
# Copyright (C) 1995-1998 Ti Kan
#
# Track frame offsets:
#       150
#       19117
#       35447
#       56789
#       76293
#       96988
#       114059
#       132283
#       153730
#       171200
#       186591
#       205583
#
# Disc length: 3479 seconds
#
# Revision: 0
# Processed by: cddbd v1.5PL3 Copyright (c) Steve Scherf et al.
# Submitted via: CD-Transfer v1.0
#
DISCID=9e0d950c
DTITLE=Vera Kaa - Wotschmi
DYEAR=2004
DGENRE=
TTITLE0=Chom Mit Mir
TTITLE1=Glanz Und Gloria
TTITLE2=Fotialbum
TTITLE3=Wotschmi
TTITLE4=Zieht Mi Zu Der He
TTITLE5=Lueg Mi Ned So A
TTITLE6=Lady
TTITLE7=Uf Em Wäg
TTITLE8=Im Taxi
TTITLE9=Ok
TTITLE10=Ohni Dech
TTITLE11=Bahnhof Sbb
EXTD=
EXTT0=
EXTT1=
EXTT2=
EXTT3=
EXTT4=
EXTT5=
EXTT6=
EXTT7=
EXTT8=
EXTT9=
EXTT10=
EXTT11=
PLAYORDER=
